<svg width="35" height="37" viewBox="0 0 35 37" fill="none" xmlns="http://www.w3.org/2000/svg">
<path d="M31.4484 15.7746H35C35 7.33015 28.1223 0.961456 19 0.961456V4.25362C26.2133 4.25362 31.4484 9.09804 31.4484 15.7746Z" fill="#249FC0"/>
<path d="M18.5259 12.9187C22.4218 12.9187 24.0835 14.5803 24.0835 18.4759H27.7886C27.7886 12.5019 24.5003 9.21392 18.5259 9.21392V12.9187ZM24.8653 23.0014C24.5093 22.6778 24.0415 22.5053 23.5607 22.5202C23.0799 22.535 22.6237 22.7361 22.2884 23.081L17.8553 27.6398C16.7882 27.436 14.643 26.7673 12.4347 24.5648C10.2265 22.3549 9.55776 20.2042 9.35954 19.1447L13.9149 14.71C14.2603 14.3749 14.4617 13.9187 14.4765 13.4378C14.4914 12.9569 14.3186 12.489 13.9946 12.1333L7.14946 4.60699C6.82535 4.25013 6.37488 4.03368 5.89372 4.00358C5.41257 3.97349 4.93864 4.13214 4.57258 4.44583L0.552579 7.89315C0.232295 8.21457 0.0411291 8.64236 0.0153426 9.09536C-0.0124454 9.55846 -0.542271 20.5284 7.96458 29.0383C15.3858 36.4572 24.6819 37 27.2421 37C27.6163 37 27.846 36.9889 27.9071 36.9851C28.3601 36.9598 28.7877 36.7678 29.1076 36.4461L32.5533 32.4245C32.8672 32.0587 33.0262 31.585 32.9965 31.1039C32.9667 30.6228 32.7506 30.1722 32.394 29.8478L24.8653 23.0014Z" fill="#249FC0"/>
</svg>
