<svg width="27" height="32" viewBox="0 0 27 32" fill="none" xmlns="http://www.w3.org/2000/svg">
<path d="M25.3444 19.9423C26.3799 17.9978 26.9199 15.8279 26.9167 13.6248C26.9167 6.19188 20.8913 0.166504 13.4584 0.166504C6.0254 0.166504 1.97423e-05 6.19188 1.97423e-05 13.6248C-0.00542822 16.7996 1.11682 19.8732 3.16669 22.2975L3.18252 22.3173C3.18806 22.3221 3.19281 22.3284 3.19677 22.3332H3.16669L11.153 30.8119C11.4491 31.1262 11.8063 31.3766 12.2026 31.5477C12.599 31.7189 13.0262 31.8072 13.458 31.8072C13.8897 31.8072 14.3169 31.7189 14.7133 31.5477C15.1097 31.3766 15.4668 31.1262 15.7629 30.8119L23.75 22.3332H23.7199L23.7326 22.3181L23.7342 22.3165C23.7912 22.2485 23.8482 22.1804 23.9044 22.1107C24.4535 21.4358 24.936 20.7094 25.3452 19.9415L25.3444 19.9423ZM13.4615 18.7707C12.2017 18.7707 10.9936 18.2702 10.1028 17.3794C9.21197 16.4886 8.71152 15.2804 8.71152 14.0207C8.71152 12.7609 9.21197 11.5527 10.1028 10.6619C10.9936 9.77112 12.2017 9.27067 13.4615 9.27067C14.7213 9.27067 15.9295 9.77112 16.8203 10.6619C17.7111 11.5527 18.2115 12.7609 18.2115 14.0207C18.2115 15.2804 17.7111 16.4886 16.8203 17.3794C15.9295 18.2702 14.7213 18.7707 13.4615 18.7707Z" fill="white"/>
</svg>
