<svg width="35" height="29" viewBox="0 0 35 29" fill="none" xmlns="http://www.w3.org/2000/svg">
<path d="M5.75 0.0524292C4.22501 0.0524292 2.76247 0.660349 1.68414 1.74245C0.605802 2.82456 0 4.29221 0 5.82253V6.40243L17.25 15.724L34.5 6.40531V5.82253C34.5 4.29221 33.8942 2.82456 32.8159 1.74245C31.7375 0.660349 30.275 0.0524292 28.75 0.0524292H5.75Z" fill="#249FC0"/>
<path d="M34.5 9.67981L17.9314 18.6321C17.722 18.7452 17.4878 18.8045 17.25 18.8045C17.0122 18.8045 16.778 18.7452 16.5686 18.6321L0 9.67981V23.1328C0 24.6631 0.605802 26.1308 1.68414 27.2129C2.76247 28.295 4.22501 28.9029 5.75 28.9029H28.75C30.275 28.9029 31.7375 28.295 32.8159 27.2129C33.8942 26.1308 34.5 24.6631 34.5 23.1328V9.67981Z" fill="#249FC0"/>
</svg>
